# AST/ASF file generated using VICON BodyLanguage
# -----------------------------------------------
:version 1.10
:name VICON
:units
  mass 1.0
  length 0.45
  angle deg
:documentation
   .ast/.asf automatically generated from VICON data using
   VICON BodyBuilder and BodyLanguage model FoxedUp or BRILLIANT.MOD
:root
   order TX TY TZ RX RY RZ
   axis XYZ
   position 0 0 0  
   orientation 0 0 0 
:bonedata
  begin
     id 1 
     name lhipjoint
     direction 0.822369 -0.411937 0.392449 
     length 3.8167 
     axis 0 0 0  XYZ
  end
  begin
     id 2 
     name lfemur
     direction 0.34202 -0.939693 0  
     length 6.16791  
     axis 0 0 20  XYZ
    dof rx ry rz
    limits (-160.0 20.0)
           (-70.0 70.0)
           (-60.0 70.0)
  end
  begin
     id 3 
     name ltibia
     direction 0.34202 -0.939693 0   
     length 7.07101   
     axis 0 0 20   XYZ
    dof rx
    limits (-10.0 170.0)
  end
  begin
     id 4 
     name lfoot
     direction 0.028254 -0.0776273 0.996582   
     length 1.66799   
     axis -90 7.62852e-016 20   XYZ
    dof rx rz
    limits (-45.0 90.0)
           (-70.0 20.0)
  end
  begin
     id 5 
     name ltoes
     direction 1.53483e-011 -4.21688e-011 1   
     length 0.851674   
     axis -90 7.62852e-016 20   XYZ
    dof rx
    limits (-90.0 20.0)
  end
  begin
     id 6 
     name rhipjoint
     direction -0.822466 -0.411836 0.392353   
     length 3.81764  
     axis 0 0 0  XYZ 
  end
  begin
     id 7 
     name rfemur
     direction -0.34202 -0.939693 0   
     length 6.28636   
     axis 0 0 -20   XYZ
    dof rx ry rz
    limits (-160.0 20.0)
           (-70.0 70.0)
           (-70.0 60.0)
  end
  begin
     id 8 
     name rtibia
     direction -0.34202 -0.939693 0   
     length 6.85621   
     axis 0 0 -20   XYZ
    dof rx
    limits (-10.0 170.0)
 end
 begin
     id 9 
     name rfoot
     direction -0.0553036 -0.151945 0.98684   
     length 1.57293  
     axis -90 -7.62852e-016 -20   XYZ
    dof rx rz
    limits (-45.0 90.0)
           (-20.0 70.0)
  end
  begin
     id 10 
     name rtoes
     direction -1.53592e-011 -4.21964e-011 1   
     length 0.802812   
     axis -90 -7.62852e-016 -20   XYZ
    dof rx
    limits (-90.0 20.0)
  end
  begin
     id 11 
     name lowerback
     direction 0.00654913 0.996475 -0.0836396   
     length 1.97212   
     axis 0 0 0   XYZ
    dof rx ry rz
    limits (-20.0 45.0)
           (-30.0 30.0)
           (-30.0 30.0)
  end
  begin
     id 12 
     name upperback
     direction 0.0111875 0.994527 0.103877   
     length 1.89704   
     axis 0 0 0   XYZ
    dof rx ry rz
    limits (-20.0 45.0)
           (-30.0 30.0)
           (-30.0 30.0)
  end
  begin
     id 13 
     name thorax
     direction 0.00473652 0.989004 0.147814   
     length 1.94516   
     axis 0 0 0   XYZ
    dof rx ry rz
    limits (-20.0 45.0)
           (-30.0 30.0)
           (-30.0 30.0)
  end
  begin
     id 14 
     name lowerneck
     direction -0.00925808 0.999011 0.0434791   
     length 1.81771   
     axis 0 0 0   XYZ
    dof rx ry rz
    limits (-20.0 45.0)
           (-30.0 30.0)
           (-30.0 30.0)
  end
  begin
     id 15 
     name upperneck
     direction 0.00451595 0.964412 -0.264365   
     length 1.80434   
     axis 0 0 0   XYZ
    dof rx ry rz
    limits (-20.0 45.0)
           (-30.0 30.0)
           (-30.0 30.0)
  end
  begin
     id 16
     name head
     direction -0.00110849 0.995756 -0.0920241  
     length 1.84006  
     axis 0 0 0   XYZ
    dof rx ry rz
    limits (-20.0 45.0)
           (-30.0 30.0)
           (-30.0 30.0)
  end
  begin
     id 17 
     name lclavicle
     direction 0.921253 0.385213 0.0538957  
     length 3.67415  
     axis 0 0 0   XYZ
    dof ry rz
    limits (-20.0 10.0)
           (0.0 20.0)
  end
  begin
     id 18 
     name lhumerus
     direction 1 -4.48961e-011 6.73441e-028   
     length 4.32712   
     axis 180 -30 -90   XYZ
    dof rx ry rz
    limits (-60.0 90.0)
           (-90.0 90.0)
           (-90.0 90.0)
  end
  begin
     id 19
     name lradius
     direction 1 -4.48985e-011 -9.53507e-028   
     length 3.28587   
     axis 180 -30 -90   XYZ
    dof rx
    limits (-10.0 170.0)
  end
  begin
     id 20
     name lwrist
     direction 1 -4.48951e-011 -4.67472e-027   
     length 1.64293   
     axis 1.65735e-015 90 90   XYZ
    dof ry
    limits (-180.0 0.0)
 end
  begin
     id 21 
     name lhand
     direction 1 -4.48946e-011 -9.34945e-027   
     length 0.433158   
     axis 5.96574e-015 90 90   XYZ
    dof rx rz
    limits (-90.0 90.0)
           (-45.0 45.0)
  end
  begin
     id 22 
     name lfingers
     direction 1 -4.48882e-011 -1.86989e-026   
     length 0.349224   
     axis 1.19315e-014 90 90   XYZ
    dof rx
    limits (0.0 90.0)
  end
  begin
     id 23
     name lthumb
     direction 0.707107 -6.3493e-011 0.707107   
     length 0.501417   
     axis -90 45 2.85299e-015   XYZ
    dof rx rz
    limits (-45.0 45.0)
           (-45.0 45.0)
  end
  begin
     id 24 
     name rclavicle
     direction -0.884378 0.46502 -0.0403866   
     length 3.50218  
     axis 0 0 0   XYZ 
    dof ry rz
    limits (-10.0 20.0)
           (-20.0 0.0)
  end
  begin
     id 25 
     name rhumerus
     direction -1 -4.48964e-011 1.58188e-027  
     length 4.29104   
     axis 180 30 90   XYZ
    dof rx ry rz
    limits (-90.0 60.0)
           (-90.0 90.0)
           (-90.0 90.0)
  end
  begin
     id 26 
     name rradius
     direction -1 -4.48978e-011 -1.9722e-027   
     length 3.2272   
     axis 180 30 90   XYZ
    dof rx
    limits (-10.0 170.0)
  end
  begin
     id 27 
     name rwrist
     direction -1 -4.48969e-011 -4.67472e-027   
     length 1.6136   
     axis 1.65735e-015 -90 -90   XYZ
    dof ry
    limits (-180.0 0.0)
  end
  begin
     id 28
     name rhand
     direction -1 -4.48846e-011 -9.34945e-027   
     length 0.543623   
     axis 5.96574e-015 -90 -90   XYZ
    dof rx rz
    limits (-90.0 90.0)
           (-45.0 45.0)
  end
  begin
     id 29
     name rfingers
     direction -1 -4.49074e-011 -1.86989e-026   
     length 0.438283   
     axis 1.19315e-014 -90 -90   XYZ
    dof rx
    limits (0.0 90.0)
  end
  begin
     id 30
     name rthumb
     direction -0.707107 -6.34834e-011 0.707107   
     length 0.629289   
     axis -90 -45 -2.85299e-015   XYZ
    dof rx rz
    limits (-45.0 45.0)
           (-45.0 45.0)
  end
:hierarchy
  begin
    root lhipjoint rhipjoint lowerback
    lhipjoint lfemur
    lfemur ltibia
    ltibia lfoot
    lfoot ltoes
    rhipjoint rfemur
    rfemur rtibia
    rtibia rfoot
    rfoot rtoes
    lowerback upperback
    upperback thorax
    thorax lowerneck lclavicle rclavicle
    lowerneck upperneck
    upperneck head
    lclavicle lhumerus
    lhumerus lradius
    lradius lwrist
    lwrist lhand lthumb
    lhand lfingers
    rclavicle rhumerus
    rhumerus rradius
    rradius rwrist
    rwrist rhand rthumb
    rhand rfingers
  end

#!OML:ASF H:\GeneralSubjects\Female5\Project 1\Capture day 1\Session 1\Female5.ASF
:FULLY-SPECIFIED
:DEGREES
71
root -4.07367 16.5861 2.51382 184.123 -9.48776 193.359
lowerback 17.8328 0.139882 5.11086
upperback -7.54843 1.77307 3.61055
thorax -19.0326 0.337898 0.827537
lowerneck -10.0426 -8.81491 -11.5893
upperneck 42.5406 -24.3753 6.68202
head 21.1518 -13.0077 -0.745112
rclavicle 1.75179e-014 4.41302e-014
rhumerus -56.6303 26.9939 -89.6692
rradius 31.8164
rwrist 6.0181
rhand -33.016 -30.7245
rfingers 7.12502
rthumb -6.22966 -60.6129
lclavicle 1.75179e-014 4.41302e-014
lhumerus -19.4449 -31.7547 75.4637
lradius 51.6535
lwrist -12.013
lhand -31.0719 30.7109
lfingers 7.12502
lthumb -4.35255 60.6462
rfemur -66.3122 2.63253 35.9441
rtibia 88.4803
rfoot 32.1783 33.0144
rtoes -30.4799
lfemur -10.7198 -20.3224 -20.2731
ltibia 15.7671
lfoot -9.35132 6.52156
ltoes -64.3996
72
root -3.89324 16.6994 2.47247 183.095 -11.6895 195.062
lowerback 18.3434 0.00549138 4.73428
upperback -7.50899 1.62666 4.55349
thorax -19.3769 0.385757 2.22995
lowerneck -9.94681 -9.11452 -11.9246
upperneck 42.1346 -24.4812 6.94716
head 20.9928 -13.0122 -0.554673
rclavicle -1.96051e-014 1.94809e-014
rhumerus -57.5876 27.7497 -89.4049
rradius 32.0403
rwrist 0.610343
rhand -29.8742 -25.4518
rfingers 7.12502
rthumb -3.19597 -55.4076
lclavicle -1.96051e-014 1.94809e-014
lhumerus -17.6218 -32.8173 75.9205
lradius 52.6384
lwrist -11.0587
lhand -31.8949 31.1304
lfingers 7.12502
lthumb -5.1472 61.0479
rfemur -67.239 2.9601 36.7004
rtibia 88.0989
rfoot 34.5572 36.8624
rtoes -34.8014
lfemur -10.0406 -21.2156 -17.9213
ltibia 14.8715
lfoot -8.17379 6.9986
ltoes -64.3272
73
root -3.7264 16.8097 2.43278 181.907 -13.9664 196.891
lowerback 18.8653 -0.146575 4.4536
upperback -7.67886 1.51913 5.66723
thorax -19.4313 0.378453 3.42432
lowerneck -9.96217 -9.45636 -12.1383
upperneck 41.6015 -24.5094 7.18783
head 20.7355 -12.9471 -0.370854
rclavicle 7.70291e-015 -5.96354e-015
rhumerus -58.3301 28.4561 -88.9934
rradius 32.1054
rwrist -4.00504
rhand -26.073 -21.3233
rfingers 7.12502
rthumb 0.475284 -51.3025
lclavicle 7.70291e-015 -5.96354e-015
lhumerus -15.8817 -33.5151 76.3933
lradius 53.5543
lwrist -10.6927
lhand -32.1351 31.2527
lfingers 7.12502
lthumb -5.37921 61.1644
rfemur -67.9339 2.77599 37.3987
rtibia 87.9306
rfoot 32.6817 44.0623
rtoes -43.6636
lfemur -9.49738 -22.0821 -15.6113
ltibia 14.1097
lfoot -7.06778 7.8065
ltoes -66.1677
74
root -3.56936 16.9153 2.40271 180.771 -16.2654 198.291
lowerback 19.5524 -0.35273 3.95881
upperback -7.60245 1.23421 6.39479
thorax -19.8035 0.366832 4.65693
lowerneck -10.1572 -9.8348 -12.0963
upperneck 41.2024 -24.6256 7.22157
head 20.5356 -12.8894 -0.365853
rclavicle 9.61372e-014 -3.18055e-014
rhumerus -58.899 29.3543 -88.7985
rradius 31.9277
rwrist -7.81442
rhand -21.2497 -17.7459
rfingers 7.12502
rthumb 5.1333 -47.6637
lclavicle 9.61372e-014 -3.18055e-014
lhumerus -14.2662 -33.905 76.683
lradius 54.5286
lwrist -10.405
lhand -32.3463 31.1033
lfingers 7.12502
lthumb -5.58311 61.0098
rfemur -68.7736 2.35612 37.2151
rtibia 88.1052
rfoot 32.2418 49.7974
rtoes -45.6833
lfemur -9.21713 -22.8567 -13.9563
ltibia 13.5303
lfoot -5.77884 8.7568
ltoes -66.3296
75
root -3.41602 17.0137 2.38033 179.583 -18.521 199.635
lowerback 20.2726 -0.6319 3.56333
upperback -7.46083 0.859154 6.96816
thorax -20.0825 0.301211 5.6986
lowerneck -10.3651 -10.0449 -12.3663
upperneck 40.7003 -24.8751 8.02619
head 20.5687 -12.8679 -0.0253659
rclavicle 2.28602e-015 -1.14898e-013
rhumerus -59.9019 30.8099 -89.4743
rradius 31.9799
rwrist -10.9106
rhand -16.1744 -14.3576
rfingers 7.12502
rthumb 10.0319 -44.0985
lclavicle 2.28602e-015 -1.14898e-013
lhumerus -12.686 -34.0795 76.6462
lradius 55.5095
lwrist -10.2359
lhand -32.5281 30.4916
lfingers 7.12502
lthumb -5.75865 60.3933
rfemur -69.3477 1.95292 36.6338
rtibia 88.3852
rfoot 37.2945 52.4499
rtoes -48.4479
lfemur -9.11042 -23.5186 -12.4957
ltibia 13.1752
lfoot -4.46598 9.74795
ltoes -66.3797
76
root -3.2663 17.1058 2.35386 178.207 -20.6484 201.374
lowerback 20.9795 -0.91757 3.57054
upperback -7.28292 0.576449 7.58627
thorax -20.294 0.220815 6.54017
lowerneck -10.5693 -10.341 -12.4284
upperneck 40.1076 -24.9763 8.47109
head 20.3761 -12.7815 0.179855
rclavicle -2.70968e-014 -1.14102e-013
rhumerus -61.421 32.3472 -90.7433
rradius 32.5034
rwrist -12.4413
rhand -13.1806 -12.23
rfingers 7.12502
rthumb 12.9191 -41.8101
lclavicle -2.70968e-014 -1.14102e-013
lhumerus -11.2144 -33.9897 76.5867
lradius 56.3417
lwrist -10.4045
lhand -32.0697 29.143
lfingers 7.12502
lthumb -5.31603 59.0563
rfemur -69.3547 1.61684 36.2965
rtibia 88.6117
rfoot 43.5945 54.7894
rtoes -48.294
lfemur -9.11872 -23.9013 -10.6308
ltibia 12.9654
lfoot -3.15108 10.6094
ltoes -67.5592
77
root -3.12107 17.1902 2.32224 176.86 -22.6293 203.063
lowerback 21.6279 -1.13293 3.4833
upperback -7.1435 0.356287 8.19702
thorax -20.5216 0.180487 7.41805
lowerneck -10.7003 -10.6538 -12.2676
upperneck 39.4711 -24.8115 8.46917
head 19.9273 -12.6035 0.245426
rclavicle -1.56916e-014 1.59028e-015
rhumerus -62.9544 33.3963 -91.7335
rradius 33.2322
rwrist -12.3079
rhand -12.5178 -11.999
rfingers 7.12502
rthumb 13.558 -41.5376
lclavicle -1.56916e-014 1.59028e-015
lhumerus -10.1138 -33.692 76.7856
lradius 57.1117
lwrist -11.0772
lhand -31.1782 27.7542
lfingers 7.12502
lthumb -4.4552 57.6874
rfemur -69.2263 1.19954 35.8571
rtibia 88.8909
rfoot 50.5691 56.8511
rtoes -46.6941
lfemur -9.19748 -24.2538 -8.84196
ltibia 12.6977
lfoot -2.26106 11.5575
ltoes -66.7809
78
root -2.98247 17.2655 2.28627 175.624 -24.4497 204.435
lowerback 22.2225 -1.27701 3.06426
upperback -7.02355 0.128231 8.72297
thorax -20.7381 0.182434 8.40054
lowerneck -11.0325 -11.0186 -11.8864
upperneck 39.103 -24.828 8.18324
head 19.6344 -12.493 0.0730419
rclavicle -9.43357e-014 2.3059e-014
rhumerus -64.1613 33.9526 -92.0564
rradius 33.9668
rwrist -11.7803
rhand -12.6333 -12.4231
rfingers 7.12502
rthumb 13.4467 -41.969
lclavicle -9.43357e-014 2.3059e-014
lhumerus -9.49117 -33.3705 77.1702
lradius 57.9922
lwrist -11.7937
lhand -30.6532 26.8834
lfingers 7.12502
lthumb -3.94823 56.8265
rfemur -69.0534 0.863737 35.0248
rtibia 89.2188
rfoot 55.9436 58.7553
rtoes -45.4102
lfemur -9.21334 -24.6502 -7.49875
ltibia 12.351
lfoot -1.61309 12.7039
ltoes -68.1893
79
root -2.85491 17.3309 2.24644 174.515 -26.0995 205.598
lowerback 22.648 -1.37532 2.4795
upperback -6.89067 -0.110999 9.18476
thorax -20.8265 0.197564 9.40654
lowerneck -11.2694 -11.25 -11.6574
upperneck 38.8033 -24.5492 7.77174
head 19.3148 -12.3156 -0.0471828
rclavicle 5.93248e-014 -1.68967e-013
rhumerus -64.9927 34.2633 -91.7315
rradius 34.7515
rwrist -11.8958
rhand -12.7977 -12.2121
rfingers 7.12502
rthumb 13.2882 -41.7684
lclavicle 5.93248e-014 -1.68967e-013
lhumerus -9.18332 -33.1564 77.6724
lradius 58.8143
lwrist -11.7485
lhand -31.2026 26.9143
lfingers 7.12502
lthumb -4.47874 56.8469
rfemur -68.7872 0.62946 34.0156
rtibia 89.5292
rfoot 60.8215 59.2553
rtoes -43.7918
lfemur -9.14123 -25.2083 -6.5034
ltibia 11.9221
lfoot -0.974915 13.9138
ltoes -67.5283
80
root -2.73065 17.3851 2.20632 173.547 -27.6242 206.763
lowerback 22.8472 -1.48028 1.93031
upperback -6.7863 -0.376558 9.59741
thorax -20.8005 0.188443 10.3411
lowerneck -11.6517 -11.4126 -11.5622
upperneck 38.7515 -24.5691 7.71918
head 19.3561 -12.2479 -0.1138
rclavicle -1.48654e-014 7.4743e-014
rhumerus -65.5545 34.3823 -91.0851
rradius 35.6074
rwrist -12.5004
rhand -12.8066 -11.7856
rfingers 7.12502
rthumb 13.2797 -41.3426
lclavicle -1.48654e-014 7.4743e-014
lhumerus -9.1291 -32.9996 78.2093
lradius 59.5362
lwrist -11.0728
lhand -32.5974 27.9354
lfingers 7.12502
lthumb -5.82553 57.8353
rfemur -68.5248 0.473192 33.1243
rtibia 89.7999
rfoot 63.712 61.1848
rtoes -43.3498
lfemur -9.11584 -26.3715 -5.46655
ltibia 11.3486
lfoot -1.23408 15.3433
ltoes -66.7166
81
root -2.59642 17.4258 2.17025 172.829 -29.0554 207.928
lowerback 22.9012 -1.55963 1.27402
upperback -6.79491 -0.650237 9.96186
thorax -20.8254 0.193036 11.2983
lowerneck -11.914 -11.5175 -11.4792
upperneck 38.7217 -24.6218 7.77217
head 19.4139 -12.2049 -0.134958
rclavicle 6.32011e-014 -6.12257e-014
rhumerus -66.1001 34.4055 -90.3934
rradius 36.6791
rwrist -13.5531
rhand -11.9495 -11.7119
rfingers 7.12502
rthumb 14.1057 -41.2131
lclavicle 6.32011e-014 -6.12257e-014
lhumerus -9.43037 -32.6498 78.7575
lradius 60.2655
lwrist -10.8355
lhand -33.4493 29.0888
lfingers 7.12502
lthumb -6.64794 58.9645
rfemur -68.6025 0.617309 32.33
rtibia 90.0406
rfoot 69.0334 60.5395
rtoes -39.8385
lfemur -9.55483 -27.8635 -4.0949
ltibia 10.8757
lfoot -1.95209 16.602
ltoes -67.4421
82
root -2.46905 17.4531 2.136 172.137 -30.2633 208.979
lowerback 23.0577 -1.5688 0.515387
upperback -6.84459 -0.852077 10.3018
thorax -20.9737 0.252883 12.2841
lowerneck -11.807 -11.5176 -11.3621
upperneck 38.3771 -24.4528 7.94631
head 19.1677 -12.0922 0.00394333
rclavicle -4.79816e-014 7.79236e-014
rhumerus -66.8201 34.5204 -89.6545
rradius 38.0058
rwrist -14.8817
rhand -10.0483 -11.849
rfingers 7.12502
rthumb 15.9372 -41.2133
lclavicle -4.79816e-014 7.79236e-014
lhumerus -10.0584 -32.0616 79.4313
lradius 60.8393
lwrist -11.0625
lhand -33.5261 29.3708
lfingers 7.12502
lthumb -6.72215 59.2441
rfemur -68.5975 0.90543 31.5816
rtibia 90.2094
rfoot 74.3851 58.3694
rtoes -35.3997
lfemur -9.89967 -29.4562 -2.73226
ltibia 10.332
lfoot -2.3992 17.6579
ltoes -67.6658
83
root -2.3604 17.4696 2.09694 171.232 -31.1732 209.871
lowerback 23.3974 -1.51119 -0.24598
upperback -6.8004 -0.961161 10.5895
thorax -21.1219 0.352222 13.1796
lowerneck -12.0776 -11.6014 -11.3199
upperneck 38.4173 -24.4586 7.911
head 19.2489 -12.0507 -0.0427128
rclavicle -5.71506e-014 -3.4191e-014
rhumerus -67.7135 34.7475 -88.9911
rradius 39.4493
rwrist -15.8637
rhand -8.03485 -12.0554
rfingers 7.12502
rthumb 17.8753 -41.2539
lclavicle -5.71506e-014 -3.4191e-014
lhumerus -10.7833 -31.3334 80.1533
lradius 61.1301
lwrist -11.2887
lhand -33.5227 29.0537
lfingers 7.12502
lthumb -6.7188 58.9271
rfemur -68.0205 1.19259 30.8858
rtibia 90.3147
rfoot 78.1952 58.4495
rtoes -33.4997
lfemur -9.55911 -31.301 -1.74143
ltibia 9.63812
lfoot -3.31793 18.5847
ltoes -67.0008
84
root -2.25668 17.4674 2.05856 170.509 -31.9783 210.509
lowerback 23.6 -1.4292 -1.08935
upperback -6.74558 -1.07943 10.7815
thorax -21.1623 0.448489 14.0012
lowerneck -12.1499 -11.6838 -11.5441
upperneck 38.1677 -24.4969 8.27706
head 19.2518 -12.0278 0.139413
rclavicle -5.83433e-014 4.21423e-014
rhumerus -68.7009 35.1394 -88.4983
rradius 40.8695
rwrist -16.109
rhand -6.94581 -12.9775
rfingers 7.12502
rthumb 18.9229 -42.077
lclavicle -5.83433e-014 4.21423e-014
lhumerus -11.5719 -30.5005 80.8774
lradius 61.265
lwrist -11.418
lhand -33.6488 28.5318
lfingers 7.12502
lthumb -6.84057 58.4013
rfemur -67.6173 1.41315 30.1336
rtibia 90.3653
rfoot 82.7412 58.1427
rtoes -29.834
lfemur -9.28479 -33.1539 -0.980948
ltibia 9.10931
lfoot -4.85253 19.36
ltoes -67.7342
